<svg width="140" height="22" viewBox="0 0 140 22" fill="none" xmlns="http://www.w3.org/2000/svg">
<path d="M3.356 17.88V21.268H0.804V6.198H2.894L3.092 7.43H3.158C3.62733 7.00467 4.16267 6.65267 4.764 6.374C5.38 6.08067 5.996 5.934 6.612 5.934C7.316 5.934 7.93933 6.066 8.482 6.33C9.03933 6.57933 9.50133 6.946 9.868 7.43C10.2493 7.914 10.5353 8.49333 10.726 9.168C10.9313 9.84267 11.034 10.598 11.034 11.434C11.034 12.358 10.902 13.1867 10.638 13.92C10.374 14.6387 10.0147 15.2473 9.56 15.746C9.12 16.23 8.60667 16.604 8.02 16.868C7.448 17.132 6.854 17.264 6.238 17.264C5.73933 17.264 5.226 17.154 4.698 16.934C4.18467 16.714 3.708 16.3987 3.268 15.988L3.356 17.88ZM3.356 14.184C3.752 14.5507 4.15533 14.8073 4.566 14.954C4.99133 15.1007 5.37267 15.174 5.71 15.174C6.48733 15.174 7.13267 14.866 7.646 14.25C8.15933 13.6193 8.416 12.688 8.416 11.456C8.416 10.3707 8.218 9.52733 7.822 8.926C7.426 8.32467 6.788 8.024 5.908 8.024C5.49733 8.024 5.07933 8.12667 4.654 8.332C4.22867 8.53733 3.796 8.86733 3.356 9.322V14.184ZM23.5214 17H21.4534L21.2554 15.284H21.1674C20.6541 15.8853 20.0894 16.3693 19.4734 16.736C18.8574 17.088 18.1461 17.264 17.3394 17.264C16.0781 17.264 15.1614 16.89 14.5894 16.142C14.0174 15.3793 13.7314 14.294 13.7314 12.886V6.198H16.2614V12.556C16.2614 13.436 16.4081 14.0813 16.7014 14.492C17.0094 14.888 17.5374 15.086 18.2854 15.086C18.7987 15.086 19.2534 14.9687 19.6494 14.734C20.0601 14.4993 20.5074 14.0813 20.9914 13.48V6.198H23.5214V17ZM28.2428 6.198H30.3328L30.5528 8.64H30.6188C31.1761 7.76 31.8435 7.09267 32.6208 6.638C33.4128 6.16867 34.2781 5.934 35.2168 5.934C35.6568 5.934 36.0308 5.97067 36.3388 6.044C36.6615 6.10267 36.9841 6.21267 37.3068 6.374L36.7788 8.508C36.4268 8.39067 36.1115 8.31 35.8328 8.266C35.5688 8.20733 35.2315 8.178 34.8208 8.178C34.0728 8.178 33.3541 8.39067 32.6648 8.816C31.9755 9.24133 31.3521 9.982 30.7948 11.038V17H28.2428V6.198ZM39.9382 11.61C39.9382 10.73 40.0922 9.938 40.4002 9.234C40.7229 8.53 41.1409 7.936 41.6542 7.452C42.1676 6.95333 42.7542 6.57933 43.4142 6.33C44.0889 6.066 44.7782 5.934 45.4822 5.934C46.2889 5.934 47.0002 6.066 47.6162 6.33C48.2469 6.57933 48.7749 6.93133 49.2002 7.386C49.6256 7.826 49.9482 8.36133 50.1682 8.992C50.3882 9.62267 50.4982 10.312 50.4982 11.06C50.4982 11.3093 50.4836 11.544 50.4542 11.764C50.4396 11.984 50.4176 12.16 50.3882 12.292H42.5342C42.6222 13.26 43.0036 14.008 43.6782 14.536C44.3529 15.0493 45.1816 15.306 46.1642 15.306C46.7216 15.306 47.2422 15.2327 47.7262 15.086C48.2102 14.9247 48.7016 14.7047 49.2002 14.426L50.0582 16.01C49.4716 16.3767 48.8189 16.6773 48.1002 16.912C47.3816 17.1467 46.6262 17.264 45.8342 17.264C45.0129 17.264 44.2429 17.1393 43.5242 16.89C42.8056 16.626 42.1822 16.252 41.6542 15.768C41.1262 15.284 40.7082 14.6973 40.4002 14.008C40.0922 13.304 39.9382 12.5047 39.9382 11.61ZM48.1662 10.576C48.1662 9.74 47.9462 9.08733 47.5062 8.618C47.0662 8.134 46.4136 7.892 45.5482 7.892C44.8149 7.892 44.1622 8.11933 43.5902 8.574C43.0182 9.02867 42.6589 9.696 42.5122 10.576H48.1662ZM56.1876 15.042C56.1876 14.3967 56.393 13.8687 56.8036 13.458C57.2143 13.0327 57.735 12.82 58.3656 12.82C58.9963 12.82 59.517 13.0327 59.9276 13.458C60.3383 13.8687 60.5436 14.3967 60.5436 15.042C60.5436 15.6873 60.3383 16.2227 59.9276 16.648C59.517 17.0587 58.9963 17.264 58.3656 17.264C57.735 17.264 57.2143 17.0587 56.8036 16.648C56.393 16.2227 56.1876 15.6873 56.1876 15.042ZM66.563 11.61C66.563 10.7153 66.7244 9.916 67.047 9.212C67.3844 8.508 67.8317 7.914 68.389 7.43C68.9464 6.946 69.599 6.57933 70.347 6.33C71.095 6.066 71.8797 5.934 72.701 5.934C73.581 5.934 74.351 6.08067 75.011 6.374C75.6857 6.66733 76.2504 7.02667 76.705 7.452L75.495 9.036C75.0697 8.69867 74.637 8.442 74.197 8.266C73.7717 8.09 73.317 8.002 72.833 8.002C71.7477 8.002 70.8677 8.332 70.193 8.992C69.5184 9.63733 69.181 10.51 69.181 11.61C69.181 12.1527 69.269 12.644 69.445 13.084C69.621 13.524 69.863 13.9053 70.171 14.228C70.4937 14.536 70.875 14.778 71.315 14.954C71.755 15.1153 72.239 15.196 72.767 15.196C73.383 15.196 73.9404 15.0787 74.439 14.844C74.9524 14.6093 75.4217 14.3307 75.847 14.008L76.903 15.636C76.287 16.1787 75.5977 16.5893 74.835 16.868C74.0724 17.132 73.3024 17.264 72.525 17.264C71.6744 17.264 70.8824 17.1393 70.149 16.89C69.4304 16.6407 68.7997 16.274 68.257 15.79C67.729 15.306 67.311 14.712 67.003 14.008C66.7097 13.304 66.563 12.5047 66.563 11.61ZM79.3144 11.61C79.3144 10.7153 79.4611 9.916 79.7544 9.212C80.0624 8.508 80.4658 7.914 80.9644 7.43C81.4631 6.946 82.0424 6.57933 82.7024 6.33C83.3624 6.066 84.0444 5.934 84.7484 5.934C85.4524 5.934 86.1344 6.066 86.7944 6.33C87.4544 6.57933 88.0338 6.946 88.5324 7.43C89.0311 7.914 89.4271 8.508 89.7204 9.212C90.0284 9.916 90.1824 10.7153 90.1824 11.61C90.1824 12.5047 90.0284 13.304 89.7204 14.008C89.4271 14.712 89.0311 15.306 88.5324 15.79C88.0338 16.274 87.4544 16.6407 86.7944 16.89C86.1344 17.1393 85.4524 17.264 84.7484 17.264C84.0444 17.264 83.3624 17.1393 82.7024 16.89C82.0424 16.6407 81.4631 16.274 80.9644 15.79C80.4658 15.306 80.0624 14.712 79.7544 14.008C79.4611 13.304 79.3144 12.5047 79.3144 11.61ZM81.9324 11.61C81.9324 12.6953 82.1818 13.568 82.6804 14.228C83.1791 14.8733 83.8684 15.196 84.7484 15.196C85.6284 15.196 86.3178 14.8733 86.8164 14.228C87.3151 13.568 87.5644 12.6953 87.5644 11.61C87.5644 10.51 87.3151 9.63733 86.8164 8.992C86.3178 8.332 85.6284 8.002 84.7484 8.002C83.8684 8.002 83.1791 8.332 82.6804 8.992C82.1818 9.63733 81.9324 10.51 81.9324 11.61ZM92.5058 11.61C92.5058 10.73 92.6378 9.938 92.9018 9.234C93.1658 8.53 93.5178 7.936 93.9578 7.452C94.4125 6.968 94.9258 6.594 95.4978 6.33C96.0698 6.066 96.6638 5.934 97.2798 5.934C97.9252 5.934 98.4752 6.05133 98.9298 6.286C99.3992 6.506 99.8538 6.814 100.294 7.21L100.184 5.384V1.468H102.736V17H100.646L100.448 15.746H100.382C99.9565 16.1713 99.4578 16.5307 98.8858 16.824C98.3285 17.1173 97.7418 17.264 97.1258 17.264C96.4365 17.264 95.8058 17.1393 95.2338 16.89C94.6618 16.626 94.1705 16.252 93.7598 15.768C93.3638 15.284 93.0558 14.6973 92.8358 14.008C92.6158 13.304 92.5058 12.5047 92.5058 11.61ZM95.1238 11.588C95.1238 12.7613 95.3512 13.656 95.8058 14.272C96.2605 14.8733 96.9058 15.174 97.7418 15.174C98.6365 15.174 99.4505 14.7413 100.184 13.876V9.014C99.8025 8.64733 99.4212 8.39067 99.0398 8.244C98.6585 8.09733 98.2698 8.024 97.8738 8.024C97.4925 8.024 97.1332 8.10467 96.7958 8.266C96.4732 8.42733 96.1872 8.662 95.9378 8.97C95.6885 9.26333 95.4905 9.63 95.3438 10.07C95.1972 10.51 95.1238 11.016 95.1238 11.588ZM105.895 11.61C105.895 10.73 106.049 9.938 106.357 9.234C106.68 8.53 107.098 7.936 107.611 7.452C108.125 6.95333 108.711 6.57933 109.371 6.33C110.046 6.066 110.735 5.934 111.439 5.934C112.246 5.934 112.957 6.066 113.573 6.33C114.204 6.57933 114.732 6.93133 115.157 7.386C115.583 7.826 115.905 8.36133 116.125 8.992C116.345 9.62267 116.455 10.312 116.455 11.06C116.455 11.3093 116.441 11.544 116.411 11.764C116.397 11.984 116.375 12.16 116.345 12.292H108.491C108.579 13.26 108.961 14.008 109.635 14.536C110.31 15.0493 111.139 15.306 112.121 15.306C112.679 15.306 113.199 15.2327 113.683 15.086C114.167 14.9247 114.659 14.7047 115.157 14.426L116.015 16.01C115.429 16.3767 114.776 16.6773 114.057 16.912C113.339 17.1467 112.583 17.264 111.791 17.264C110.97 17.264 110.2 17.1393 109.481 16.89C108.763 16.626 108.139 16.252 107.611 15.768C107.083 15.284 106.665 14.6973 106.357 14.008C106.049 13.304 105.895 12.5047 105.895 11.61ZM114.123 10.576C114.123 9.74 113.903 9.08733 113.463 8.618C113.023 8.134 112.371 7.892 111.505 7.892C110.772 7.892 110.119 8.11933 109.547 8.574C108.975 9.02867 108.616 9.696 108.469 10.576H114.123ZM126.787 20.894C125.305 19.662 124.132 18.21 123.267 16.538C122.416 14.866 121.991 12.9813 121.991 10.884C121.991 8.78667 122.416 6.902 123.267 5.23C124.132 3.558 125.305 2.106 126.787 0.873999L128.195 2.04C126.801 3.30133 125.782 4.64333 125.137 6.066C124.491 7.48867 124.169 9.09467 124.169 10.884C124.169 12.6733 124.491 14.2793 125.137 15.702C125.782 17.1247 126.801 18.4667 128.195 19.728L126.787 20.894ZM133.642 19.728C135.035 18.4667 136.055 17.1247 136.7 15.702C137.345 14.2793 137.668 12.6733 137.668 10.884C137.668 9.09467 137.345 7.48867 136.7 6.066C136.055 4.64333 135.035 3.30133 133.642 2.04L135.05 0.873999C136.531 2.106 137.697 3.558 138.548 5.23C139.413 6.902 139.846 8.78667 139.846 10.884C139.846 12.9813 139.413 14.866 138.548 16.538C137.697 18.21 136.531 19.662 135.05 20.894L133.642 19.728Z" fill="black"/>
</svg>
