<svg width="512" height="512" viewBox="0 0 512 512" fill="none" xmlns="http://www.w3.org/2000/svg">
<g clip-path="url(#clip0)">
<path d="M428.133 183C420.557 180.012 412.574 177.243 404.236 174.693C396.922 172.467 389.336 170.409 381.509 168.539C360.966 163.628 338.773 159.971 315.545 157.672C305.399 156.658 295.044 155.917 284.553 155.446C275.295 155.018 265.912 154.798 256.456 154.798C247 154.798 237.616 155.017 228.348 155.446C217.847 155.916 207.492 156.669 197.346 157.672C174.118 159.971 151.935 163.628 131.392 168.539C123.566 170.409 115.98 172.468 108.665 174.693C100.327 177.232 92.344 180.012 84.768 183C35.272 202.539 8 229.895 8 260.019C8 290.143 35.272 317.499 84.769 337.049C92.345 340.037 100.317 342.806 108.655 345.356C115.969 347.582 123.555 349.64 131.382 351.5C151.925 356.421 174.118 360.068 197.357 362.377C207.503 363.38 217.858 364.122 228.359 364.603C237.617 365.031 247 365.24 256.456 365.24C265.912 365.24 275.285 365.031 284.543 364.603C295.044 364.122 305.389 363.38 315.545 362.377C338.773 360.078 360.977 356.421 381.52 351.5C389.346 349.63 396.932 347.582 404.247 345.346C412.575 342.807 420.558 340.038 428.133 337.049C477.64 317.499 504.902 290.144 504.902 260.019C504.901 229.895 477.64 202.539 428.133 183ZM466.501 287.792C455.822 297.771 439.564 307.227 419.491 315.158C412.731 317.822 405.625 320.309 398.206 322.587C390.923 324.834 383.348 326.892 375.511 328.752C362.042 331.96 347.8 334.593 332.973 336.631C323.088 338 312.942 339.097 302.587 339.902C287.572 341.104 272.139 341.71 256.455 341.71C240.771 341.71 225.338 341.104 210.323 339.913C199.968 339.098 189.812 338.001 179.927 336.632C165.1 334.594 150.858 331.961 137.389 328.753C129.552 326.893 121.977 324.835 114.694 322.588C107.275 320.31 100.17 317.823 93.409 315.159C73.337 307.228 57.078 297.772 46.399 287.793C36.535 278.587 31.53 269.246 31.53 260.02C31.53 250.794 36.535 241.452 46.399 232.247C57.078 222.268 73.336 212.812 93.409 204.881C100.169 202.217 107.275 199.73 114.694 197.452C121.977 195.205 129.552 193.147 137.389 191.287C150.858 188.079 165.1 185.446 179.927 183.408C189.812 182.039 199.968 180.942 210.323 180.127C225.338 178.936 240.771 178.33 256.455 178.33C272.139 178.33 287.572 178.936 302.587 180.138C312.942 180.943 323.088 182.04 332.973 183.409C347.8 185.447 362.042 188.08 375.511 191.288C383.348 193.148 390.923 195.206 398.206 197.453C405.625 199.731 412.73 202.218 419.491 204.882C439.563 212.813 455.822 222.269 466.501 232.248C476.365 241.454 481.37 250.795 481.37 260.021C481.37 269.246 476.365 278.587 466.501 287.792Z" fill="#0096bf"/>
<path d="M408.398 372.008C407.241 363.947 405.693 355.641 403.778 347.134C402.088 339.678 400.119 332.069 397.866 324.343C391.956 304.065 384.14 282.974 374.631 261.657C370.487 252.341 366.001 242.979 361.213 233.632C356.999 225.378 352.543 217.118 347.859 208.903C343.175 200.689 338.336 192.645 333.373 184.807C327.763 175.917 321.98 167.295 316.083 158.978C302.58 139.939 288.415 122.48 273.973 107.067C268.472 101.195 262.925 95.6246 257.369 90.3722C251.033 84.3866 244.664 78.8289 238.316 73.7277C196.825 40.4091 159.552 30.2685 133.383 45.1901C107.214 60.1118 96.9591 97.3535 104.494 150.035C105.651 158.097 107.194 166.394 109.109 174.9C110.799 182.356 112.769 189.966 115.03 197.686C120.931 217.969 128.756 239.055 138.261 260.386C142.415 269.697 146.9 279.06 151.684 288.42C155.898 296.675 160.364 304.929 165.048 313.144C169.732 321.358 174.557 329.397 179.514 337.227C185.134 346.111 190.902 354.73 196.804 363.056C210.307 382.095 224.483 399.573 238.933 414.981C244.434 420.853 249.971 426.428 255.537 431.675C261.868 437.652 268.228 443.215 274.576 448.315C316.082 481.638 353.35 491.77 379.519 476.848C405.687 461.926 415.948 424.693 408.398 372.008ZM336.371 457.246C322.413 452.913 306.145 443.473 289.312 429.964C283.65 425.412 277.969 420.47 272.315 415.154C266.756 409.94 261.216 404.379 255.718 398.493C246.26 388.381 236.918 377.313 227.803 365.443C221.717 357.534 215.738 349.263 209.91 340.667C201.428 328.219 193.257 315.112 185.488 301.488C177.719 287.863 170.601 274.156 164.198 260.523C159.777 251.124 155.699 241.758 151.992 232.492C146.418 218.603 141.651 204.926 137.766 191.637C135.499 183.908 133.535 176.308 131.879 168.868C130.183 161.295 128.824 153.891 127.79 146.698C124.737 125.333 124.897 106.525 128.276 92.3049C131.388 79.1759 137.023 70.2011 145.037 65.6311C153.052 61.0611 163.647 60.7814 176.529 64.7907C190.488 69.1245 206.755 78.5638 223.588 92.0727C229.251 96.6255 234.931 101.567 240.585 106.883C246.144 112.097 251.684 117.658 257.182 123.544C266.641 133.656 275.983 144.724 285.097 156.594C291.183 164.503 297.167 172.782 303.004 181.374C311.476 193.828 319.647 206.934 327.416 220.559C335.185 234.183 342.303 247.89 348.697 261.529C353.127 270.923 357.199 280.28 360.906 289.546C366.481 303.435 371.248 317.111 375.133 330.401C377.399 338.13 379.363 345.73 381.019 353.17C382.715 360.743 384.074 368.147 385.109 375.34C388.162 396.705 388.001 415.513 384.622 429.733C381.511 442.862 375.876 451.837 367.861 456.407C359.847 460.976 349.254 461.256 336.371 457.246Z" fill="#0096bf"/>
<path d="M256.456 306.715C282.245 306.715 303.152 285.809 303.152 260.019C303.152 234.23 282.245 213.323 256.456 213.323C230.667 213.323 209.76 234.23 209.76 260.019C209.76 285.809 230.667 306.715 256.456 306.715Z" fill="#0096bf"/>
<path d="M273.364 72.6143C267.049 77.7567 260.726 83.3613 254.419 89.3827C248.897 94.6698 243.388 100.276 237.925 106.185C223.584 121.692 209.528 139.252 196.15 158.379C190.298 166.729 184.581 175.394 179.033 184.311C174.127 192.174 169.34 200.247 164.71 208.492C160.08 216.737 155.676 225.026 151.512 233.317C146.779 242.703 142.366 252.1 138.272 261.438C128.903 282.816 121.229 303.949 115.452 324.265C113.25 332.004 111.331 339.627 109.689 347.094C107.82 355.608 106.335 363.929 105.23 371.998C98.0301 424.722 108.528 461.896 134.793 476.646C161.059 491.397 198.265 481.013 239.548 447.429C245.863 442.287 252.181 436.692 258.487 430.671C264.009 425.383 269.518 419.777 274.972 413.863C289.322 398.361 303.369 380.797 316.762 361.665C322.605 353.31 328.322 344.644 333.883 335.724C338.79 327.861 343.567 319.783 348.197 311.538C352.827 303.293 357.234 295.018 361.395 286.736C366.117 277.345 370.536 267.962 374.634 258.616C384.004 237.237 391.688 216.086 397.456 195.765C399.658 188.026 401.587 180.409 403.219 172.936C405.083 164.431 406.578 156.115 407.681 148.047C414.877 95.308 404.375 58.1431 378.109 43.392C351.843 28.6422 314.642 39.0161 273.364 72.6143ZM383.521 90.4737C386.992 104.671 387.276 123.477 384.362 144.862C383.375 152.061 382.064 159.475 380.417 167.059C378.81 174.509 376.895 182.122 374.68 189.866C370.881 203.18 366.203 216.887 360.72 230.813C357.073 240.102 353.062 249.486 348.693 258.909C342.389 272.589 335.36 286.342 327.68 300.017C320 313.692 311.915 326.851 303.524 339.36C297.743 347.989 291.814 356.307 285.78 364.256C276.742 376.186 267.473 387.314 258.081 397.487C252.621 403.41 247.118 409.007 241.592 414.256C235.973 419.61 230.326 424.587 224.692 429.177C207.949 442.795 191.742 452.341 177.812 456.766C164.956 460.858 154.36 460.648 146.316 456.131C138.272 451.613 132.577 442.675 129.381 429.567C125.91 415.369 125.626 396.564 128.54 375.178C129.527 367.98 130.838 360.566 132.485 352.982C134.092 345.531 136.007 337.919 138.222 330.175C142.021 316.86 146.699 303.153 152.182 289.228C155.829 279.938 159.845 270.546 164.205 261.118C170.519 247.443 177.548 233.691 185.227 220.015C192.907 206.34 200.993 193.181 209.393 180.678C215.165 172.043 221.09 163.734 227.124 155.786C236.161 143.856 245.431 132.727 254.823 122.554C260.282 116.632 265.786 111.035 271.311 105.785C276.93 100.432 282.578 95.4547 288.211 90.8642C304.955 77.2467 321.161 67.7005 335.091 63.2758C347.948 59.1831 358.543 59.3931 366.588 63.9108C374.631 68.4279 380.325 77.3658 383.521 90.4737Z" fill="#0096bf"/>
</g>
<defs>
<clipPath id="clip0">
<rect width="512" height="512" fill="white"/>
</clipPath>
</defs>
</svg>
